G04 Layer_Color=8421504*
%FSLAX44Y44*%
%MOMM*%
G71*
G01*
G75*
%ADD10R,1.2000X1.5000*%
%ADD11R,0.6000X0.6000*%
%ADD12C,1.8000*%
%ADD13R,1.8000X1.8000*%
%ADD14R,0.6000X2.5000*%
%ADD15O,0.6000X2.5000*%
%ADD16R,0.9000X0.8000*%
%ADD17R,1.5000X1.2000*%
G04:AMPARAMS|DCode=18|XSize=1mm|YSize=2mm|CornerRadius=0mm|HoleSize=0mm|Usage=FLASHONLY|Rotation=0.000|XOffset=0mm|YOffset=0mm|HoleType=Round|Shape=Octagon|*
%AMOCTAGOND18*
4,1,8,-0.2500,1.0000,0.2500,1.0000,0.5000,0.7500,0.5000,-0.7500,0.2500,-1.0000,-0.2500,-1.0000,-0.5000,-0.7500,-0.5000,0.7500,-0.2500,1.0000,0.0*
%
%ADD18OCTAGOND18*%

%ADD19R,1.0000X2.0000*%
%ADD20R,0.8000X0.9000*%
%ADD21O,0.6000X2.2000*%
%ADD22R,0.6000X2.2000*%
%ADD23R,2.5000X0.6000*%
%ADD24O,2.5000X0.6000*%
%ADD25R,0.5500X1.3000*%
%ADD26O,1.4000X0.3000*%
%ADD27O,0.3000X1.4000*%
D10*
X-16584Y290000D02*
D03*
X-39536D02*
D03*
X495149Y368236D02*
D03*
X472197D02*
D03*
X162523Y123160D02*
D03*
X185476D02*
D03*
X583989Y289751D02*
D03*
X606941D02*
D03*
X382326Y166343D02*
D03*
X405278D02*
D03*
X446283Y166788D02*
D03*
X469235D02*
D03*
X510015Y166344D02*
D03*
X532967D02*
D03*
D11*
X106484Y95395D02*
D03*
X97008D02*
D03*
D12*
X123200Y388400D02*
D03*
X97800Y363000D02*
D03*
X72400D02*
D03*
Y388400D02*
D03*
X47000D02*
D03*
D13*
Y363000D02*
D03*
D14*
X149572Y39000D02*
D03*
D15*
X136872D02*
D03*
X124172D02*
D03*
X111472D02*
D03*
X149572Y-15500D02*
D03*
X136872D02*
D03*
X124172D02*
D03*
X111472D02*
D03*
D16*
X513000Y292499D02*
D03*
X527000D02*
D03*
X451001D02*
D03*
X465001D02*
D03*
X385920Y292495D02*
D03*
X399920D02*
D03*
X426000Y18307D02*
D03*
X412000D02*
D03*
X396802Y142297D02*
D03*
X382802D02*
D03*
X260000Y84000D02*
D03*
X274000D02*
D03*
X462169Y142299D02*
D03*
X448169D02*
D03*
X425485Y85000D02*
D03*
X411485D02*
D03*
X524491Y142299D02*
D03*
X510491D02*
D03*
D17*
X13786Y239289D02*
D03*
Y262241D02*
D03*
D18*
X380802Y267802D02*
D03*
X405802Y266802D02*
D03*
X445000Y266161D02*
D03*
X470000Y265161D02*
D03*
X508491Y266022D02*
D03*
X533491Y265022D02*
D03*
D19*
X405802Y196802D02*
D03*
X380802D02*
D03*
X470000Y195161D02*
D03*
X445000D02*
D03*
X533491Y195022D02*
D03*
X508491D02*
D03*
D20*
X279000Y120000D02*
D03*
Y106000D02*
D03*
X260000Y53000D02*
D03*
Y67000D02*
D03*
X275000Y53000D02*
D03*
Y67000D02*
D03*
X294000Y120000D02*
D03*
Y106000D02*
D03*
X410000Y53000D02*
D03*
Y67000D02*
D03*
X425803Y53000D02*
D03*
Y67000D02*
D03*
X411302Y-11000D02*
D03*
Y3000D02*
D03*
X310000Y119999D02*
D03*
Y105999D02*
D03*
X426000Y-10999D02*
D03*
Y3001D02*
D03*
D21*
X380550Y75395D02*
D03*
Y14195D02*
D03*
X367850Y75395D02*
D03*
X355150D02*
D03*
X367850Y14195D02*
D03*
X355150D02*
D03*
X317050D02*
D03*
X329750D02*
D03*
X342450D02*
D03*
X304350Y75395D02*
D03*
X317050D02*
D03*
X329750D02*
D03*
X342450D02*
D03*
D22*
X304350Y14195D02*
D03*
D23*
X530952Y361632D02*
D03*
D24*
Y348932D02*
D03*
Y336232D02*
D03*
Y323532D02*
D03*
X585452Y361632D02*
D03*
Y348932D02*
D03*
Y336232D02*
D03*
Y323532D02*
D03*
D25*
X-37763Y241556D02*
D03*
X-17747D02*
D03*
X-27755Y265056D02*
D03*
D26*
X55007Y193347D02*
D03*
Y188347D02*
D03*
Y183347D02*
D03*
Y178347D02*
D03*
Y173347D02*
D03*
Y168347D02*
D03*
Y163347D02*
D03*
Y158347D02*
D03*
Y153347D02*
D03*
Y148347D02*
D03*
Y143347D02*
D03*
Y138347D02*
D03*
X139007D02*
D03*
Y143347D02*
D03*
Y148347D02*
D03*
Y153347D02*
D03*
Y158347D02*
D03*
Y163347D02*
D03*
Y168347D02*
D03*
Y173347D02*
D03*
Y178347D02*
D03*
Y183347D02*
D03*
Y188347D02*
D03*
Y193347D02*
D03*
D27*
X69507Y123847D02*
D03*
X74507D02*
D03*
X79507D02*
D03*
X84507D02*
D03*
X89507D02*
D03*
X94507D02*
D03*
X99507D02*
D03*
X104507D02*
D03*
X109507D02*
D03*
X114507D02*
D03*
X119507D02*
D03*
X124507D02*
D03*
Y207847D02*
D03*
X119507D02*
D03*
X114507D02*
D03*
X109507D02*
D03*
X104507D02*
D03*
X99507D02*
D03*
X94507D02*
D03*
X89507D02*
D03*
X84507D02*
D03*
X79507D02*
D03*
X74507D02*
D03*
X69507D02*
D03*
M02*
