G04 Layer_Color=16711935*
%FSLAX44Y44*%
%MOMM*%
G71*
G01*
G75*
%ADD65C,2.0032*%
%ADD66R,2.0032X2.0032*%
%ADD81C,4.2032*%
%ADD82C,0.2032*%
%ADD83R,1.7032X1.7032*%
%ADD84R,3.2032X3.2032*%
%ADD85C,3.2032*%
%ADD86C,2.2032*%
%ADD87R,2.2032X2.2032*%
%ADD88C,1.2032*%
%ADD89R,2.7032X6.2032*%
G04:AMPARAMS|DCode=90|XSize=2.7032mm|YSize=6.2032mm|CornerRadius=0mm|HoleSize=0mm|Usage=FLASHONLY|Rotation=180.000|XOffset=0mm|YOffset=0mm|HoleType=Round|Shape=Octagon|*
%AMOCTAGOND90*
4,1,8,0.6758,-3.1016,-0.6758,-3.1016,-1.3516,-2.4258,-1.3516,2.4258,-0.6758,3.1016,0.6758,3.1016,1.3516,2.4258,1.3516,-2.4258,0.6758,-3.1016,0.0*
%
%ADD90OCTAGOND90*%

%ADD91R,0.8032X0.8032*%
D65*
X29085Y-62155D02*
D03*
X54485D02*
D03*
X308485Y-87556D02*
D03*
Y-62155D02*
D03*
X384685Y-87556D02*
D03*
X359285Y-62155D02*
D03*
X384685D02*
D03*
X359285Y-87556D02*
D03*
X333885Y-62155D02*
D03*
Y-87556D02*
D03*
X410085Y-62155D02*
D03*
Y-87556D02*
D03*
X435485D02*
D03*
Y-62155D02*
D03*
X283085D02*
D03*
Y-87556D02*
D03*
X257685D02*
D03*
Y-62155D02*
D03*
X232285D02*
D03*
Y-87556D02*
D03*
X206885D02*
D03*
Y-62155D02*
D03*
X-47115D02*
D03*
X-21715Y-87556D02*
D03*
Y-62155D02*
D03*
X3685D02*
D03*
Y-87556D02*
D03*
X29085D02*
D03*
X181485Y-62155D02*
D03*
Y-87556D02*
D03*
X156085D02*
D03*
Y-62155D02*
D03*
X79885Y-87556D02*
D03*
Y-62155D02*
D03*
X105285Y-87556D02*
D03*
X130685Y-62155D02*
D03*
X105285D02*
D03*
X130685Y-87556D02*
D03*
X54485D02*
D03*
D66*
X-47115D02*
D03*
D81*
X622466Y166344D02*
D03*
X652466Y214598D02*
D03*
X592466Y214344D02*
D03*
D82*
X0Y82D02*
D03*
X480000D02*
D03*
Y330080D02*
D03*
X0Y330000D02*
D03*
X389840Y400789D02*
D03*
X200102D02*
D03*
D83*
X686562Y156464D02*
D03*
Y131064D02*
D03*
X687324Y17272D02*
D03*
Y-8128D02*
D03*
D84*
X216000Y-6000D02*
D03*
D85*
Y194000D02*
D03*
D86*
X190000Y357891D02*
D03*
Y327891D02*
D03*
X220000Y357891D02*
D03*
Y327891D02*
D03*
X250000Y357891D02*
D03*
Y327891D02*
D03*
X280000Y357891D02*
D03*
Y327891D02*
D03*
X310000Y357891D02*
D03*
Y327891D02*
D03*
X340000Y357891D02*
D03*
Y327891D02*
D03*
X370000Y357891D02*
D03*
Y327891D02*
D03*
X400000Y357891D02*
D03*
D87*
Y327891D02*
D03*
D88*
X64400Y36000D02*
D03*
X77400D02*
D03*
D89*
X40000Y40000D02*
D03*
D90*
Y122500D02*
D03*
D91*
X705818Y-1731D02*
D03*
Y7746D02*
D03*
X705000Y137233D02*
D03*
Y146709D02*
D03*
M02*
