G04 Layer_Color=65535*
%FSLAX44Y44*%
%MOMM*%
G71*
G01*
G75*
%ADD58C,0.5000*%
%ADD59C,0.2500*%
%ADD60C,0.1000*%
%ADD61C,0.2540*%
%ADD62C,0.2000*%
G36*
X448988Y215152D02*
Y215138D01*
Y215124D01*
Y215082D01*
Y215027D01*
Y214902D01*
X448974Y214722D01*
Y214527D01*
X448960Y214319D01*
X448947Y214111D01*
X448919Y213917D01*
Y213890D01*
X448905Y213834D01*
X448877Y213737D01*
X448849Y213598D01*
X448794Y213460D01*
X448739Y213293D01*
X448655Y213127D01*
X448544Y212960D01*
X448531Y212946D01*
X448489Y212891D01*
X448420Y212808D01*
X448336Y212711D01*
X448225Y212600D01*
X448087Y212489D01*
X447920Y212392D01*
X447740Y212295D01*
X447712Y212281D01*
X447657Y212253D01*
X447560Y212225D01*
X447421Y212170D01*
X447268Y212128D01*
X447088Y212101D01*
X446894Y212073D01*
X446686Y212059D01*
X446575D01*
X446506Y212073D01*
X446409Y212087D01*
X446298Y212101D01*
X446048Y212142D01*
X445757Y212239D01*
X445466Y212364D01*
X445313Y212447D01*
X445174Y212544D01*
X445036Y212655D01*
X444897Y212780D01*
X444883Y212794D01*
X444869Y212808D01*
X444842Y212850D01*
X444800Y212919D01*
X444744Y212988D01*
X444689Y213085D01*
X444633Y213196D01*
X444564Y213335D01*
X444509Y213473D01*
X444439Y213640D01*
X444384Y213834D01*
X444342Y214042D01*
X444287Y214264D01*
X444259Y214500D01*
X444245Y214777D01*
X444231Y215054D01*
Y217107D01*
X441000D01*
Y218161D01*
X448988D01*
Y215152D01*
D02*
G37*
G36*
X473988Y217580D02*
X468330Y215680D01*
X468316D01*
X468288Y215666D01*
X468247Y215652D01*
X468177Y215625D01*
X468025Y215583D01*
X467831Y215514D01*
X467623Y215458D01*
X467429Y215403D01*
X467276Y215347D01*
X467207Y215333D01*
X467151Y215319D01*
Y215292D01*
X467179Y215278D01*
X467234Y215264D01*
X467345Y215236D01*
X467484Y215181D01*
X467664Y215125D01*
X467886Y215056D01*
X468136Y214973D01*
X468427Y214876D01*
X473988Y212962D01*
Y211547D01*
X466000D01*
Y212560D01*
X472685D01*
Y212574D01*
X466000Y214890D01*
Y215833D01*
X472795Y218121D01*
Y218162D01*
X466000D01*
Y219161D01*
X473988D01*
Y217580D01*
D02*
G37*
G36*
X394031Y246758D02*
X394170D01*
X394323Y246744D01*
X394517Y246717D01*
X394725Y246689D01*
X394947Y246633D01*
X395183Y246578D01*
X395418Y246509D01*
X395668Y246425D01*
X395918Y246328D01*
X396167Y246203D01*
X396403Y246065D01*
X396639Y245898D01*
X396847Y245718D01*
X396861Y245704D01*
X396888Y245663D01*
X396944Y245607D01*
X397013Y245524D01*
X397096Y245413D01*
X397193Y245288D01*
X397291Y245149D01*
X397388Y244983D01*
X397485Y244789D01*
X397582Y244581D01*
X397679Y244359D01*
X397762Y244123D01*
X397831Y243860D01*
X397887Y243596D01*
X397915Y243305D01*
X397929Y243000D01*
Y242986D01*
Y242944D01*
Y242889D01*
X397915Y242806D01*
Y242695D01*
X397901Y242584D01*
X397873Y242445D01*
X397859Y242306D01*
X397790Y241987D01*
X397679Y241655D01*
X397526Y241322D01*
X397443Y241155D01*
X397332Y241003D01*
Y240989D01*
X397304Y240961D01*
X397277Y240920D01*
X397221Y240864D01*
X397083Y240725D01*
X396902Y240545D01*
X396653Y240351D01*
X396361Y240157D01*
X396001Y239977D01*
X395599Y239838D01*
X395349Y240878D01*
X395363D01*
X395391Y240892D01*
X395432Y240906D01*
X395488Y240920D01*
X395640Y240989D01*
X395821Y241072D01*
X396015Y241183D01*
X396223Y241322D01*
X396431Y241474D01*
X396597Y241668D01*
X396611Y241696D01*
X396666Y241766D01*
X396736Y241877D01*
X396819Y242043D01*
X396888Y242237D01*
X396958Y242459D01*
X397013Y242709D01*
X397027Y243000D01*
Y243014D01*
Y243055D01*
Y243125D01*
X397013Y243222D01*
X396999Y243319D01*
X396986Y243458D01*
X396916Y243749D01*
X396819Y244068D01*
X396750Y244234D01*
X396666Y244401D01*
X396570Y244553D01*
X396445Y244720D01*
X396320Y244858D01*
X396167Y244997D01*
X396153Y245011D01*
X396126Y245025D01*
X396084Y245052D01*
X396015Y245094D01*
X395918Y245149D01*
X395821Y245205D01*
X395696Y245260D01*
X395557Y245330D01*
X395405Y245385D01*
X395224Y245455D01*
X395044Y245510D01*
X394836Y245552D01*
X394614Y245607D01*
X394378Y245635D01*
X394129Y245649D01*
X393865Y245663D01*
X393699D01*
X393588Y245649D01*
X393449Y245635D01*
X393297Y245621D01*
X393116Y245607D01*
X392922Y245579D01*
X392520Y245496D01*
X392104Y245357D01*
X391910Y245288D01*
X391716Y245191D01*
X391535Y245080D01*
X391369Y244955D01*
X391355Y244942D01*
X391341Y244928D01*
X391300Y244886D01*
X391244Y244830D01*
X391189Y244761D01*
X391119Y244664D01*
X391036Y244567D01*
X390967Y244456D01*
X390814Y244193D01*
X390689Y243874D01*
X390634Y243693D01*
X390606Y243513D01*
X390578Y243305D01*
X390564Y243097D01*
Y243083D01*
Y243055D01*
Y243000D01*
X390578Y242944D01*
Y242861D01*
X390592Y242764D01*
X390634Y242556D01*
X390689Y242306D01*
X390773Y242057D01*
X390897Y241807D01*
X391064Y241571D01*
X391091Y241544D01*
X391161Y241474D01*
X391286Y241377D01*
X391452Y241252D01*
X391660Y241114D01*
X391923Y240975D01*
X392243Y240850D01*
X392603Y240753D01*
X392340Y239699D01*
X392326D01*
X392284Y239713D01*
X392215Y239741D01*
X392118Y239769D01*
X392007Y239810D01*
X391882Y239852D01*
X391577Y239977D01*
X391258Y240143D01*
X390925Y240365D01*
X390606Y240614D01*
X390453Y240767D01*
X390329Y240920D01*
Y240933D01*
X390301Y240961D01*
X390273Y241003D01*
X390232Y241072D01*
X390176Y241155D01*
X390121Y241252D01*
X390065Y241377D01*
X390010Y241502D01*
X389940Y241655D01*
X389885Y241807D01*
X389774Y242168D01*
X389705Y242570D01*
X389691Y242778D01*
X389677Y243000D01*
Y243028D01*
Y243083D01*
X389691Y243194D01*
Y243319D01*
X389719Y243485D01*
X389746Y243666D01*
X389774Y243874D01*
X389829Y244095D01*
X389899Y244331D01*
X389982Y244567D01*
X390079Y244803D01*
X390190Y245039D01*
X390329Y245274D01*
X390495Y245482D01*
X390689Y245690D01*
X390897Y245871D01*
X390911Y245884D01*
X390953Y245912D01*
X391022Y245954D01*
X391119Y246009D01*
X391230Y246079D01*
X391369Y246162D01*
X391535Y246231D01*
X391729Y246314D01*
X391923Y246411D01*
X392159Y246481D01*
X392395Y246564D01*
X392659Y246633D01*
X392936Y246689D01*
X393227Y246730D01*
X393532Y246758D01*
X393851Y246772D01*
X393935D01*
X394031Y246758D01*
D02*
G37*
G36*
X512479Y215013D02*
Y214999D01*
Y214985D01*
Y214943D01*
Y214888D01*
Y214763D01*
X512465Y214583D01*
Y214389D01*
X512452Y214181D01*
X512438Y213972D01*
X512410Y213778D01*
Y213751D01*
X512396Y213695D01*
X512368Y213598D01*
X512341Y213459D01*
X512285Y213321D01*
X512230Y213154D01*
X512146Y212988D01*
X512035Y212821D01*
X512022Y212808D01*
X511980Y212752D01*
X511911Y212669D01*
X511828Y212572D01*
X511716Y212461D01*
X511578Y212350D01*
X511411Y212253D01*
X511231Y212156D01*
X511203Y212142D01*
X511148Y212114D01*
X511051Y212086D01*
X510912Y212031D01*
X510760Y211989D01*
X510579Y211962D01*
X510385Y211934D01*
X510177Y211920D01*
X510066D01*
X509997Y211934D01*
X509900Y211948D01*
X509789Y211962D01*
X509539Y212003D01*
X509248Y212100D01*
X508957Y212225D01*
X508804Y212308D01*
X508666Y212405D01*
X508527Y212516D01*
X508388Y212641D01*
X508374Y212655D01*
X508360Y212669D01*
X508333Y212710D01*
X508291Y212780D01*
X508236Y212849D01*
X508180Y212946D01*
X508125Y213057D01*
X508055Y213196D01*
X508000Y213335D01*
X507930Y213501D01*
X507875Y213695D01*
X507833Y213903D01*
X507778Y214125D01*
X507750Y214361D01*
X507736Y214638D01*
X507722Y214916D01*
Y216968D01*
X504491D01*
Y218022D01*
X512479D01*
Y215013D01*
D02*
G37*
G36*
X537479Y217441D02*
X531821Y215541D01*
X531807D01*
X531779Y215527D01*
X531738Y215513D01*
X531668Y215486D01*
X531516Y215444D01*
X531322Y215375D01*
X531114Y215319D01*
X530919Y215264D01*
X530767Y215208D01*
X530698Y215194D01*
X530642Y215180D01*
Y215153D01*
X530670Y215139D01*
X530725Y215125D01*
X530836Y215097D01*
X530975Y215042D01*
X531155Y214986D01*
X531377Y214917D01*
X531627Y214834D01*
X531918Y214737D01*
X537479Y212823D01*
Y211408D01*
X529491D01*
Y212421D01*
X536176D01*
Y212435D01*
X529491Y214751D01*
Y215694D01*
X536287Y217982D01*
Y218023D01*
X529491D01*
Y219022D01*
X537479D01*
Y217441D01*
D02*
G37*
G36*
X458230Y245117D02*
X458369D01*
X458521Y245103D01*
X458715Y245076D01*
X458923Y245048D01*
X459145Y244993D01*
X459381Y244937D01*
X459617Y244868D01*
X459866Y244785D01*
X460116Y244688D01*
X460366Y244563D01*
X460601Y244424D01*
X460837Y244258D01*
X461045Y244077D01*
X461059Y244063D01*
X461087Y244022D01*
X461142Y243966D01*
X461212Y243883D01*
X461295Y243772D01*
X461392Y243647D01*
X461489Y243509D01*
X461586Y243342D01*
X461683Y243148D01*
X461780Y242940D01*
X461877Y242718D01*
X461960Y242482D01*
X462030Y242219D01*
X462085Y241955D01*
X462113Y241664D01*
X462127Y241359D01*
Y241345D01*
Y241304D01*
Y241248D01*
X462113Y241165D01*
Y241054D01*
X462099Y240943D01*
X462071Y240804D01*
X462057Y240666D01*
X461988Y240347D01*
X461877Y240014D01*
X461725Y239681D01*
X461642Y239515D01*
X461530Y239362D01*
Y239348D01*
X461503Y239320D01*
X461475Y239279D01*
X461420Y239223D01*
X461281Y239085D01*
X461101Y238904D01*
X460851Y238710D01*
X460560Y238516D01*
X460199Y238336D01*
X459797Y238197D01*
X459547Y239237D01*
X459561D01*
X459589Y239251D01*
X459631Y239265D01*
X459686Y239279D01*
X459839Y239348D01*
X460019Y239431D01*
X460213Y239542D01*
X460421Y239681D01*
X460629Y239834D01*
X460796Y240028D01*
X460809Y240055D01*
X460865Y240125D01*
X460934Y240236D01*
X461017Y240402D01*
X461087Y240596D01*
X461156Y240818D01*
X461212Y241068D01*
X461225Y241359D01*
Y241373D01*
Y241415D01*
Y241484D01*
X461212Y241581D01*
X461198Y241678D01*
X461184Y241817D01*
X461115Y242108D01*
X461017Y242427D01*
X460948Y242593D01*
X460865Y242760D01*
X460768Y242912D01*
X460643Y243079D01*
X460518Y243217D01*
X460366Y243356D01*
X460352Y243370D01*
X460324Y243384D01*
X460282Y243412D01*
X460213Y243453D01*
X460116Y243509D01*
X460019Y243564D01*
X459894Y243620D01*
X459755Y243689D01*
X459603Y243744D01*
X459423Y243814D01*
X459242Y243869D01*
X459034Y243911D01*
X458812Y243966D01*
X458577Y243994D01*
X458327Y244008D01*
X458063Y244022D01*
X457897D01*
X457786Y244008D01*
X457647Y243994D01*
X457495Y243980D01*
X457315Y243966D01*
X457120Y243939D01*
X456718Y243855D01*
X456302Y243717D01*
X456108Y243647D01*
X455914Y243550D01*
X455734Y243439D01*
X455567Y243314D01*
X455553Y243301D01*
X455539Y243287D01*
X455498Y243245D01*
X455442Y243190D01*
X455387Y243120D01*
X455317Y243023D01*
X455234Y242926D01*
X455165Y242815D01*
X455012Y242552D01*
X454888Y242233D01*
X454832Y242052D01*
X454804Y241872D01*
X454777Y241664D01*
X454763Y241456D01*
Y241442D01*
Y241415D01*
Y241359D01*
X454777Y241304D01*
Y241220D01*
X454790Y241123D01*
X454832Y240915D01*
X454888Y240666D01*
X454971Y240416D01*
X455096Y240166D01*
X455262Y239931D01*
X455290Y239903D01*
X455359Y239834D01*
X455484Y239736D01*
X455650Y239612D01*
X455858Y239473D01*
X456122Y239334D01*
X456441Y239209D01*
X456801Y239112D01*
X456538Y238058D01*
X456524D01*
X456482Y238072D01*
X456413Y238100D01*
X456316Y238128D01*
X456205Y238169D01*
X456080Y238211D01*
X455775Y238336D01*
X455456Y238502D01*
X455123Y238724D01*
X454804Y238974D01*
X454652Y239126D01*
X454527Y239279D01*
Y239293D01*
X454499Y239320D01*
X454472Y239362D01*
X454430Y239431D01*
X454375Y239515D01*
X454319Y239612D01*
X454263Y239736D01*
X454208Y239861D01*
X454139Y240014D01*
X454083Y240166D01*
X453972Y240527D01*
X453903Y240929D01*
X453889Y241137D01*
X453875Y241359D01*
Y241387D01*
Y241442D01*
X453889Y241553D01*
Y241678D01*
X453917Y241844D01*
X453945Y242025D01*
X453972Y242233D01*
X454028Y242455D01*
X454097Y242690D01*
X454180Y242926D01*
X454277Y243162D01*
X454388Y243398D01*
X454527Y243633D01*
X454693Y243841D01*
X454888Y244049D01*
X455096Y244230D01*
X455109Y244244D01*
X455151Y244271D01*
X455220Y244313D01*
X455317Y244368D01*
X455429Y244438D01*
X455567Y244521D01*
X455734Y244590D01*
X455928Y244674D01*
X456122Y244771D01*
X456358Y244840D01*
X456593Y244923D01*
X456857Y244993D01*
X457134Y245048D01*
X457425Y245090D01*
X457731Y245117D01*
X458050Y245131D01*
X458133D01*
X458230Y245117D01*
D02*
G37*
G36*
X461988Y250096D02*
Y248945D01*
X454000Y245686D01*
Y246879D01*
X456427Y247822D01*
Y251164D01*
X454000Y252052D01*
Y253147D01*
X461988Y250096D01*
D02*
G37*
G36*
X397790Y251737D02*
Y250586D01*
X389802Y247327D01*
Y248519D01*
X392229Y249463D01*
Y252805D01*
X389802Y253692D01*
Y254788D01*
X397790Y251737D01*
D02*
G37*
G36*
X155472Y2500D02*
X149572Y11750D01*
X155472Y21000D01*
Y2500D01*
D02*
G37*
G36*
X409790Y219221D02*
X404132Y217321D01*
X404118D01*
X404090Y217307D01*
X404048Y217293D01*
X403979Y217265D01*
X403826Y217224D01*
X403632Y217155D01*
X403424Y217099D01*
X403230Y217044D01*
X403078Y216988D01*
X403008Y216974D01*
X402953Y216960D01*
Y216933D01*
X402980Y216919D01*
X403036Y216905D01*
X403147Y216877D01*
X403286Y216822D01*
X403466Y216766D01*
X403688Y216697D01*
X403937Y216614D01*
X404229Y216517D01*
X409790Y214603D01*
Y213188D01*
X401802D01*
Y214200D01*
X408486D01*
Y214214D01*
X401802Y216530D01*
Y217474D01*
X408597Y219762D01*
Y219803D01*
X401802D01*
Y220802D01*
X409790D01*
Y219221D01*
D02*
G37*
G36*
X558202Y361632D02*
X548952Y367532D01*
X567452D01*
X558202Y361632D01*
D02*
G37*
G36*
X303080Y38445D02*
X298400Y29195D01*
Y47695D01*
X303080Y38445D01*
D02*
G37*
G36*
X384790Y216793D02*
Y216779D01*
Y216765D01*
Y216723D01*
Y216668D01*
Y216543D01*
X384776Y216362D01*
Y216168D01*
X384762Y215960D01*
X384748Y215752D01*
X384720Y215558D01*
Y215530D01*
X384707Y215475D01*
X384679Y215378D01*
X384651Y215239D01*
X384596Y215100D01*
X384540Y214934D01*
X384457Y214768D01*
X384346Y214601D01*
X384332Y214587D01*
X384291Y214532D01*
X384221Y214449D01*
X384138Y214352D01*
X384027Y214241D01*
X383888Y214130D01*
X383722Y214033D01*
X383542Y213936D01*
X383514Y213922D01*
X383459Y213894D01*
X383361Y213866D01*
X383223Y213811D01*
X383070Y213769D01*
X382890Y213741D01*
X382696Y213714D01*
X382488Y213700D01*
X382377D01*
X382307Y213714D01*
X382210Y213727D01*
X382099Y213741D01*
X381850Y213783D01*
X381558Y213880D01*
X381267Y214005D01*
X381115Y214088D01*
X380976Y214185D01*
X380837Y214296D01*
X380699Y214421D01*
X380685Y214435D01*
X380671Y214449D01*
X380643Y214490D01*
X380602Y214560D01*
X380546Y214629D01*
X380491Y214726D01*
X380435Y214837D01*
X380366Y214976D01*
X380310Y215114D01*
X380241Y215281D01*
X380186Y215475D01*
X380144Y215683D01*
X380089Y215905D01*
X380061Y216141D01*
X380047Y216418D01*
X380033Y216695D01*
Y218748D01*
X376802D01*
Y219802D01*
X384790D01*
Y216793D01*
D02*
G37*
G36*
X525479Y249957D02*
Y248806D01*
X517491Y245547D01*
Y246740D01*
X519918Y247683D01*
Y251025D01*
X517491Y251913D01*
Y253008D01*
X525479Y249957D01*
D02*
G37*
G36*
X521721Y244978D02*
X521860D01*
X522012Y244965D01*
X522206Y244937D01*
X522414Y244909D01*
X522636Y244854D01*
X522872Y244798D01*
X523108Y244729D01*
X523357Y244646D01*
X523607Y244548D01*
X523857Y244424D01*
X524092Y244285D01*
X524328Y244119D01*
X524536Y243938D01*
X524550Y243924D01*
X524578Y243883D01*
X524633Y243827D01*
X524703Y243744D01*
X524786Y243633D01*
X524883Y243508D01*
X524980Y243370D01*
X525077Y243203D01*
X525174Y243009D01*
X525271Y242801D01*
X525368Y242579D01*
X525452Y242343D01*
X525521Y242080D01*
X525576Y241816D01*
X525604Y241525D01*
X525618Y241220D01*
Y241206D01*
Y241165D01*
Y241109D01*
X525604Y241026D01*
Y240915D01*
X525590Y240804D01*
X525563Y240665D01*
X525549Y240527D01*
X525479Y240208D01*
X525368Y239875D01*
X525216Y239542D01*
X525133Y239376D01*
X525022Y239223D01*
Y239209D01*
X524994Y239181D01*
X524966Y239140D01*
X524911Y239084D01*
X524772Y238946D01*
X524592Y238765D01*
X524342Y238571D01*
X524051Y238377D01*
X523690Y238197D01*
X523288Y238058D01*
X523038Y239098D01*
X523052D01*
X523080Y239112D01*
X523122Y239126D01*
X523177Y239140D01*
X523330Y239209D01*
X523510Y239292D01*
X523704Y239403D01*
X523912Y239542D01*
X524120Y239694D01*
X524287Y239889D01*
X524300Y239916D01*
X524356Y239986D01*
X524425Y240097D01*
X524509Y240263D01*
X524578Y240457D01*
X524647Y240679D01*
X524703Y240929D01*
X524716Y241220D01*
Y241234D01*
Y241276D01*
Y241345D01*
X524703Y241442D01*
X524689Y241539D01*
X524675Y241678D01*
X524606Y241969D01*
X524509Y242288D01*
X524439Y242454D01*
X524356Y242621D01*
X524259Y242773D01*
X524134Y242940D01*
X524009Y243078D01*
X523857Y243217D01*
X523843Y243231D01*
X523815Y243245D01*
X523773Y243273D01*
X523704Y243314D01*
X523607Y243370D01*
X523510Y243425D01*
X523385Y243481D01*
X523246Y243550D01*
X523094Y243605D01*
X522914Y243675D01*
X522733Y243730D01*
X522525Y243772D01*
X522303Y243827D01*
X522068Y243855D01*
X521818Y243869D01*
X521554Y243883D01*
X521388D01*
X521277Y243869D01*
X521138Y243855D01*
X520986Y243841D01*
X520806Y243827D01*
X520611Y243800D01*
X520209Y243716D01*
X519793Y243578D01*
X519599Y243508D01*
X519405Y243411D01*
X519225Y243300D01*
X519058Y243176D01*
X519044Y243162D01*
X519030Y243148D01*
X518989Y243106D01*
X518933Y243051D01*
X518878Y242981D01*
X518809Y242884D01*
X518725Y242787D01*
X518656Y242676D01*
X518503Y242413D01*
X518379Y242094D01*
X518323Y241914D01*
X518296Y241733D01*
X518268Y241525D01*
X518254Y241317D01*
Y241303D01*
Y241276D01*
Y241220D01*
X518268Y241165D01*
Y241081D01*
X518282Y240984D01*
X518323Y240776D01*
X518379Y240527D01*
X518462Y240277D01*
X518587Y240027D01*
X518753Y239792D01*
X518781Y239764D01*
X518850Y239694D01*
X518975Y239597D01*
X519141Y239473D01*
X519350Y239334D01*
X519613Y239195D01*
X519932Y239070D01*
X520293Y238973D01*
X520029Y237919D01*
X520015D01*
X519973Y237933D01*
X519904Y237961D01*
X519807Y237989D01*
X519696Y238030D01*
X519571Y238072D01*
X519266Y238197D01*
X518947Y238363D01*
X518614Y238585D01*
X518296Y238835D01*
X518143Y238987D01*
X518018Y239140D01*
Y239154D01*
X517990Y239181D01*
X517963Y239223D01*
X517921Y239292D01*
X517865Y239376D01*
X517810Y239473D01*
X517755Y239597D01*
X517699Y239722D01*
X517630Y239875D01*
X517574Y240027D01*
X517463Y240388D01*
X517394Y240790D01*
X517380Y240998D01*
X517366Y241220D01*
Y241248D01*
Y241303D01*
X517380Y241414D01*
Y241539D01*
X517408Y241705D01*
X517436Y241886D01*
X517463Y242094D01*
X517519Y242316D01*
X517588Y242551D01*
X517671Y242787D01*
X517769Y243023D01*
X517879Y243259D01*
X518018Y243494D01*
X518185Y243703D01*
X518379Y243911D01*
X518587Y244091D01*
X518601Y244105D01*
X518642Y244132D01*
X518712Y244174D01*
X518809Y244230D01*
X518919Y244299D01*
X519058Y244382D01*
X519225Y244451D01*
X519419Y244535D01*
X519613Y244632D01*
X519849Y244701D01*
X520084Y244784D01*
X520348Y244854D01*
X520625Y244909D01*
X520917Y244951D01*
X521222Y244978D01*
X521541Y244992D01*
X521624D01*
X521721Y244978D01*
D02*
G37*
%LPC*%
G36*
X448045Y217107D02*
X445188D01*
Y215054D01*
Y215027D01*
Y214971D01*
X445202Y214874D01*
X445216Y214763D01*
X445230Y214611D01*
X445271Y214458D01*
X445313Y214278D01*
X445369Y214098D01*
X445452Y213931D01*
X445549Y213751D01*
X445660Y213598D01*
X445798Y213446D01*
X445965Y213335D01*
X446159Y213238D01*
X446395Y213182D01*
X446644Y213155D01*
X446728D01*
X446811Y213168D01*
X446936Y213182D01*
X447061Y213210D01*
X447213Y213265D01*
X447352Y213321D01*
X447490Y213404D01*
X447504Y213418D01*
X447546Y213446D01*
X447615Y213501D01*
X447685Y213571D01*
X447768Y213668D01*
X447837Y213765D01*
X447906Y213890D01*
X447948Y214014D01*
Y214028D01*
X447962Y214084D01*
X447976Y214167D01*
X448004Y214278D01*
X448017Y214431D01*
X448031Y214611D01*
X448045Y214819D01*
Y215068D01*
Y217107D01*
D02*
G37*
G36*
X511536Y216968D02*
X508679D01*
Y214916D01*
Y214888D01*
Y214832D01*
X508693Y214735D01*
X508707Y214624D01*
X508721Y214472D01*
X508763Y214319D01*
X508804Y214139D01*
X508860Y213959D01*
X508943Y213792D01*
X509040Y213612D01*
X509151Y213459D01*
X509290Y213307D01*
X509456Y213196D01*
X509650Y213099D01*
X509886Y213043D01*
X510135Y213016D01*
X510219D01*
X510302Y213029D01*
X510427Y213043D01*
X510552Y213071D01*
X510704Y213127D01*
X510843Y213182D01*
X510981Y213265D01*
X510995Y213279D01*
X511037Y213307D01*
X511106Y213362D01*
X511176Y213432D01*
X511259Y213529D01*
X511328Y213626D01*
X511398Y213751D01*
X511439Y213875D01*
Y213889D01*
X511453Y213945D01*
X511467Y214028D01*
X511495Y214139D01*
X511508Y214291D01*
X511522Y214472D01*
X511536Y214680D01*
Y214929D01*
Y216968D01*
D02*
G37*
G36*
X457273Y250859D02*
Y248141D01*
X457287D01*
X457301Y248155D01*
X457384Y248182D01*
X457509Y248238D01*
X457689Y248293D01*
X457883Y248377D01*
X458119Y248460D01*
X458355Y248557D01*
X458618Y248654D01*
X459131Y248848D01*
X459381Y248931D01*
X459603Y249028D01*
X459811Y249098D01*
X459991Y249167D01*
X460130Y249222D01*
X460213Y249250D01*
X460227D01*
X460282Y249278D01*
X460352Y249292D01*
X460463Y249333D01*
X460601Y249375D01*
X460768Y249417D01*
X460948Y249472D01*
X461156Y249527D01*
Y249555D01*
X461115D01*
X461073Y249569D01*
X461017Y249583D01*
X460865Y249611D01*
X460671Y249666D01*
X460435Y249722D01*
X460185Y249791D01*
X459658Y249971D01*
X457273Y250859D01*
D02*
G37*
G36*
X393075Y252500D02*
Y249781D01*
X393088D01*
X393102Y249795D01*
X393186Y249823D01*
X393310Y249879D01*
X393491Y249934D01*
X393685Y250017D01*
X393921Y250100D01*
X394156Y250198D01*
X394420Y250295D01*
X394933Y250489D01*
X395183Y250572D01*
X395405Y250669D01*
X395612Y250739D01*
X395793Y250808D01*
X395932Y250863D01*
X396015Y250891D01*
X396029D01*
X396084Y250919D01*
X396153Y250933D01*
X396264Y250974D01*
X396403Y251016D01*
X396570Y251057D01*
X396750Y251113D01*
X396958Y251168D01*
Y251196D01*
X396916D01*
X396875Y251210D01*
X396819Y251224D01*
X396666Y251252D01*
X396472Y251307D01*
X396237Y251362D01*
X395987Y251432D01*
X395460Y251612D01*
X393075Y252500D01*
D02*
G37*
G36*
X383847Y218748D02*
X380990D01*
Y216695D01*
Y216668D01*
Y216612D01*
X381004Y216515D01*
X381018Y216404D01*
X381031Y216252D01*
X381073Y216099D01*
X381115Y215919D01*
X381170Y215739D01*
X381253Y215572D01*
X381351Y215392D01*
X381461Y215239D01*
X381600Y215087D01*
X381767Y214976D01*
X381961Y214879D01*
X382197Y214823D01*
X382446Y214795D01*
X382529D01*
X382612Y214809D01*
X382737Y214823D01*
X382862Y214851D01*
X383015Y214906D01*
X383153Y214962D01*
X383292Y215045D01*
X383306Y215059D01*
X383348Y215087D01*
X383417Y215142D01*
X383486Y215212D01*
X383569Y215308D01*
X383639Y215406D01*
X383708Y215530D01*
X383750Y215655D01*
Y215669D01*
X383764Y215725D01*
X383778Y215808D01*
X383805Y215919D01*
X383819Y216071D01*
X383833Y216252D01*
X383847Y216460D01*
Y216709D01*
Y218748D01*
D02*
G37*
G36*
X520764Y250720D02*
Y248002D01*
X520778D01*
X520792Y248016D01*
X520875Y248043D01*
X521000Y248099D01*
X521180Y248154D01*
X521374Y248237D01*
X521610Y248321D01*
X521846Y248418D01*
X522109Y248515D01*
X522622Y248709D01*
X522872Y248792D01*
X523094Y248889D01*
X523302Y248959D01*
X523482Y249028D01*
X523621Y249083D01*
X523704Y249111D01*
X523718D01*
X523773Y249139D01*
X523843Y249153D01*
X523954Y249194D01*
X524092Y249236D01*
X524259Y249278D01*
X524439Y249333D01*
X524647Y249389D01*
Y249416D01*
X524606D01*
X524564Y249430D01*
X524509Y249444D01*
X524356Y249472D01*
X524162Y249527D01*
X523926Y249583D01*
X523676Y249652D01*
X523149Y249832D01*
X520764Y250720D01*
D02*
G37*
%LPD*%
D58*
X25000Y363000D02*
G03*
X25000Y363000I-1000J0D01*
G01*
D59*
X305600Y-1811D02*
G03*
X305600Y-1811I-1250J0D01*
G01*
X59257Y203847D02*
G03*
X59257Y203847I-1250J0D01*
G01*
D60*
X-48060Y280000D02*
X-8059D01*
X-48060Y300000D02*
X-8059D01*
Y280000D02*
Y300000D01*
X-48060Y280000D02*
Y300000D01*
X91738Y90394D02*
X111738D01*
X91738D02*
Y100394D01*
X111738D01*
Y90394D02*
Y100394D01*
X503673Y358236D02*
Y378236D01*
X463673Y358236D02*
Y378236D01*
Y358236D02*
X503673D01*
X463673Y378236D02*
X503673D01*
X533000Y287499D02*
Y297498D01*
X507000D02*
X533000D01*
X507000Y287499D02*
Y297498D01*
Y287499D02*
X533000D01*
X471001D02*
Y297498D01*
X445001D02*
X471001D01*
X445001Y287499D02*
Y297498D01*
Y287499D02*
X471001D01*
X405920Y287495D02*
Y297495D01*
X379920D02*
X405920D01*
X379920Y287495D02*
Y297495D01*
Y287495D02*
X405920D01*
X154000Y113160D02*
Y133160D01*
X194000Y113160D02*
Y133160D01*
X154000D02*
X194000D01*
X154000Y113160D02*
X194000D01*
X575466Y279751D02*
Y299751D01*
X615466Y279751D02*
Y299751D01*
X575466D02*
X615466D01*
X575466Y279751D02*
X615466D01*
X3786Y230766D02*
X23786D01*
X3786Y270766D02*
X23786D01*
X3786Y230766D02*
Y270766D01*
X23786Y230766D02*
Y270766D01*
X406000Y13227D02*
X429160D01*
X406000D02*
Y23387D01*
X432000D01*
X428906Y13227D02*
X432000D01*
Y23387D01*
X373803Y156343D02*
Y176343D01*
X413803Y156343D02*
Y176343D01*
X373803D02*
X413803D01*
X373803Y156343D02*
X413803D01*
X376802Y137218D02*
X399962D01*
X376802D02*
Y147378D01*
X402802D01*
X399708Y137218D02*
X402802D01*
Y147378D01*
X368802Y279802D02*
X418302D01*
X368802Y183802D02*
Y279802D01*
Y183802D02*
X418302D01*
Y279802D01*
X284080Y100000D02*
Y123160D01*
X273920Y100000D02*
X284080D01*
X273920D02*
Y126000D01*
X284080Y122906D02*
Y126000D01*
X273920D02*
X284080D01*
X256840Y89080D02*
X280000D01*
Y78920D02*
Y89080D01*
X254000Y78920D02*
X280000D01*
X254000Y89080D02*
X257094D01*
X254000Y78920D02*
Y89080D01*
X254920Y49840D02*
Y73000D01*
X265080D01*
Y47000D02*
Y73000D01*
X254920Y47000D02*
Y50094D01*
Y47000D02*
X265080D01*
X269920Y49840D02*
Y73000D01*
X280080D01*
Y47000D02*
Y73000D01*
X269920Y47000D02*
Y50094D01*
Y47000D02*
X280080D01*
X437760Y156788D02*
Y176788D01*
X477760Y156788D02*
Y176788D01*
X437760D02*
X477760D01*
X437760Y156788D02*
X477760D01*
X442169Y137219D02*
X465329D01*
X442169D02*
Y147379D01*
X468169D01*
X465075Y137219D02*
X468169D01*
Y147379D01*
X433000Y278161D02*
X482501D01*
X433000Y182161D02*
Y278161D01*
Y182161D02*
X482501D01*
Y278161D01*
X299080Y100000D02*
Y123160D01*
X288920Y100000D02*
X299080D01*
X288920D02*
Y126000D01*
X299080Y122906D02*
Y126000D01*
X288920D02*
X299080D01*
X405485Y79920D02*
X428645D01*
X405485D02*
Y90080D01*
X431485D01*
X428391Y79920D02*
X431485D01*
Y90080D01*
X404920Y49840D02*
Y73000D01*
X415080D01*
Y47000D02*
Y73000D01*
X404920Y47000D02*
Y50094D01*
Y47000D02*
X415080D01*
X420723Y49840D02*
Y73000D01*
X430883D01*
Y47000D02*
Y73000D01*
X420723Y47000D02*
Y50094D01*
Y47000D02*
X430883D01*
X501492Y156344D02*
Y176344D01*
X541492Y156344D02*
Y176344D01*
X501492D02*
X541492D01*
X501492Y156344D02*
X541492D01*
X504491Y137219D02*
X527651D01*
X504491D02*
Y147379D01*
X530491D01*
X527397Y137219D02*
X530491D01*
Y147379D01*
X496491Y278022D02*
X545992D01*
X496491Y182022D02*
Y278022D01*
Y182022D02*
X545992D01*
Y278022D01*
X406222Y-14160D02*
Y9000D01*
X416382D01*
Y-17000D02*
Y9000D01*
X406222Y-17000D02*
Y-13906D01*
Y-17000D02*
X416382D01*
X315080Y99999D02*
Y123159D01*
X304920Y99999D02*
X315080D01*
X304920D02*
Y125999D01*
X315080Y122905D02*
Y125999D01*
X304920D02*
X315080D01*
X420920Y-14159D02*
Y9001D01*
X431080D01*
Y-16999D02*
Y9001D01*
X420920Y-16999D02*
Y-13905D01*
Y-16999D02*
X431080D01*
D61*
X139000Y349000D02*
Y401100D01*
X31000Y349000D02*
Y401100D01*
Y349000D02*
X139000D01*
X31000Y401100D02*
X139000D01*
X82400Y-36000D02*
Y-6000D01*
X60400Y-36000D02*
X82400D01*
X60400D02*
Y-6000D01*
D62*
X103472Y2500D02*
Y21000D01*
X155472D01*
X103472Y2500D02*
X155472D01*
Y21000D01*
X298400Y29195D02*
X388170D01*
X298400Y61185D02*
X388170D01*
X298400Y29195D02*
Y61185D01*
X388170Y29195D02*
Y61185D01*
X548952Y315532D02*
X567452D01*
X548952D02*
Y367532D01*
X567452Y315532D02*
Y367532D01*
X548952D02*
X567452D01*
X-31687Y246306D02*
X-23437D01*
X-44005Y250766D02*
Y261556D01*
X-35755D01*
X-11504Y250766D02*
Y261556D01*
X-19755D02*
X-11504D01*
X66007Y134847D02*
Y196847D01*
X128007Y134847D02*
Y196847D01*
X66007D02*
X128007D01*
X66007Y134847D02*
X128007D01*
M02*
