G04 Layer_Physical_Order=2*
G04 Layer_Color=32768*
%FSLAX44Y44*%
%MOMM*%
G71*
G01*
G75*
%ADD40C,1.0160*%
%ADD41C,2.0160*%
%ADD42C,3.6660*%
G04:AMPARAMS|DCode=43|XSize=4.174mm|YSize=4.174mm|CornerRadius=0mm|HoleSize=0mm|Usage=FLASHONLY|Rotation=0.000|XOffset=0mm|YOffset=0mm|HoleType=Round|Shape=Relief|Width=0.254mm|Gap=0.254mm|Entries=4|*
%AMTHD43*
7,0,0,4.1740,3.6660,0.2540,45*
%
%ADD43THD43*%
%ADD44C,3.7660*%
G04:AMPARAMS|DCode=45|XSize=2.524mm|YSize=2.524mm|CornerRadius=0mm|HoleSize=0mm|Usage=FLASHONLY|Rotation=0.000|XOffset=0mm|YOffset=0mm|HoleType=Round|Shape=Relief|Width=0.254mm|Gap=0.254mm|Entries=4|*
%AMTHD45*
7,0,0,2.5240,2.0160,0.2540,45*
%
%ADD45THD45*%
%ADD46C,1.8160*%
%ADD47C,1.6160*%
%ADD48C,3.0160*%
G04:AMPARAMS|DCode=49|XSize=3.524mm|YSize=3.524mm|CornerRadius=0mm|HoleSize=0mm|Usage=FLASHONLY|Rotation=0.000|XOffset=0mm|YOffset=0mm|HoleType=Round|Shape=Relief|Width=0.254mm|Gap=0.254mm|Entries=4|*
%AMTHD49*
7,0,0,3.5240,3.0160,0.2540,45*
%
%ADD49THD49*%
%ADD50C,4.0160*%
%ADD51C,1.5160*%
%ADD52C,1.3160*%
G04:AMPARAMS|DCode=53|XSize=1.824mm|YSize=1.824mm|CornerRadius=0mm|HoleSize=0mm|Usage=FLASHONLY|Rotation=0.000|XOffset=0mm|YOffset=0mm|HoleType=Round|Shape=Relief|Width=0.254mm|Gap=0.254mm|Entries=4|*
%AMTHD53*
7,0,0,1.8240,1.3160,0.2540,45*
%
%ADD53THD53*%
G04:AMPARAMS|DCode=54|XSize=2.124mm|YSize=2.124mm|CornerRadius=0mm|HoleSize=0mm|Usage=FLASHONLY|Rotation=0.000|XOffset=0mm|YOffset=0mm|HoleType=Round|Shape=Relief|Width=0.254mm|Gap=0.254mm|Entries=4|*
%AMTHD54*
7,0,0,2.1240,1.6160,0.2540,45*
%
%ADD54THD54*%
D40*
X-67363Y-102659D02*
G03*
X-62364Y-107659I5000J0D01*
G01*
X450733D02*
G03*
X455733Y-102659I0J5000D01*
G01*
X475733Y-29693D02*
G03*
X455733Y-49693I0J-20000D01*
G01*
X701916Y-29693D02*
G03*
X721916Y-9693I0J20000D01*
G01*
X721920Y161078D02*
G03*
X455400Y427598I-266514J7D01*
G01*
X102560Y427598D02*
G03*
X-11804Y397123I23J-229913D01*
G01*
D02*
G03*
X-67360Y301214I55008J-95909D01*
G01*
Y223022D02*
G03*
X-56796Y212458I10564J0D01*
G01*
X-21939Y201894D02*
G03*
X-32503Y212458I-10564J0D01*
G01*
Y27348D02*
G03*
X-21939Y37912I0J10564D01*
G01*
X-57360Y27348D02*
G03*
X-67360Y17348I0J-10000D01*
G01*
X-67364Y-102659D02*
Y-49693D01*
X-67360Y-49692D01*
Y17348D01*
X-57360Y27348D02*
X-32503D01*
X-21939Y37912D02*
Y201894D01*
X-32503Y212458D02*
Y212458D01*
X-56796Y212458D02*
X-32503D01*
X-67360Y223022D02*
Y301214D01*
X102560Y427598D02*
X102563Y427598D01*
X455400D01*
X721916Y161082D02*
X721920Y161078D01*
X721916Y-9693D02*
Y161082D01*
X701916Y-29693D02*
Y-29693D01*
X475733D02*
X701916D01*
X455733Y-49693D02*
X455733D01*
Y-102659D02*
Y-49693D01*
X455733Y-102659D02*
X455733D01*
X-62364Y-107659D02*
X450733Y-107659D01*
X-62364Y-107659D02*
Y-107659D01*
D41*
X29085Y-62155D02*
D03*
X54485D02*
D03*
X308485Y-87556D02*
D03*
X384685D02*
D03*
Y-62155D02*
D03*
X359285Y-87556D02*
D03*
X333885Y-62155D02*
D03*
Y-87556D02*
D03*
X410085Y-62155D02*
D03*
Y-87556D02*
D03*
X435485Y-62155D02*
D03*
X283085D02*
D03*
Y-87556D02*
D03*
X257685Y-62155D02*
D03*
X232285D02*
D03*
Y-87556D02*
D03*
X206885D02*
D03*
Y-62155D02*
D03*
X-47115D02*
D03*
Y-87556D02*
D03*
X-21715D02*
D03*
Y-62155D02*
D03*
X3685Y-87556D02*
D03*
X29085D02*
D03*
X181485D02*
D03*
X156085D02*
D03*
Y-62155D02*
D03*
X79885Y-87556D02*
D03*
Y-62155D02*
D03*
X105285Y-87556D02*
D03*
X130685Y-62155D02*
D03*
Y-87556D02*
D03*
X190000Y357891D02*
D03*
Y327891D02*
D03*
X220000Y357891D02*
D03*
Y327891D02*
D03*
X250000Y357891D02*
D03*
Y327891D02*
D03*
X280000Y357891D02*
D03*
Y327891D02*
D03*
X310000Y357891D02*
D03*
Y327891D02*
D03*
X340000Y357891D02*
D03*
Y327891D02*
D03*
X370000Y357891D02*
D03*
Y327891D02*
D03*
X400000Y357891D02*
D03*
Y327891D02*
D03*
D42*
X622466Y166344D02*
D03*
X592466Y214344D02*
D03*
D43*
X652466Y214598D02*
D03*
D44*
X0Y82D02*
D03*
X480000D02*
D03*
Y330080D02*
D03*
X0Y330000D02*
D03*
D45*
X308485Y-62155D02*
D03*
X359285D02*
D03*
X435485Y-87556D02*
D03*
X257685D02*
D03*
X3685Y-62155D02*
D03*
X181485D02*
D03*
X105285D02*
D03*
X54485Y-87556D02*
D03*
D46*
X686562Y156464D02*
D03*
Y131064D02*
D03*
X687324Y17272D02*
D03*
Y-8128D02*
D03*
D47*
X97800Y388400D02*
D03*
X123200Y363000D02*
D03*
X72400Y388400D02*
D03*
Y363000D02*
D03*
X97800D02*
D03*
X47000D02*
D03*
Y388400D02*
D03*
D48*
X216000Y-6000D02*
D03*
D49*
Y194000D02*
D03*
D50*
X389840Y400789D02*
D03*
X200102D02*
D03*
D51*
X64400Y36000D02*
D03*
X77400D02*
D03*
D52*
X561000Y289496D02*
D03*
X166000Y-15000D02*
D03*
X131319Y85000D02*
D03*
X166000D02*
D03*
X161665Y142000D02*
D03*
X49257Y236000D02*
D03*
X666000Y27348D02*
D03*
X700738Y35000D02*
D03*
X342450Y-14160D02*
D03*
Y103750D02*
D03*
X390945Y-9000D02*
D03*
X323000Y115000D02*
D03*
X279000Y137297D02*
D03*
X294000D02*
D03*
X310000Y137297D02*
D03*
X259000Y134000D02*
D03*
X78000Y238000D02*
D03*
X66648Y102000D02*
D03*
X77000Y99000D02*
D03*
X87000Y87048D02*
D03*
X11520Y222931D02*
D03*
X203000Y134000D02*
D03*
X221000Y132000D02*
D03*
D53*
X317050Y-15500D02*
D03*
X286000Y91000D02*
D03*
X402000Y28165D02*
D03*
X411303Y97000D02*
D03*
X556000Y352000D02*
D03*
X619876Y289876D02*
D03*
X425000Y208813D02*
D03*
X13786Y278161D02*
D03*
X115000Y10509D02*
D03*
X117000Y95395D02*
D03*
X161000Y188347D02*
D03*
X34950Y158347D02*
D03*
X185543Y141000D02*
D03*
X74507Y229840D02*
D03*
X89507D02*
D03*
X33000Y-7000D02*
D03*
D54*
X123200Y388400D02*
D03*
M02*
