G04 Layer_Color=32896*
%FSLAX44Y44*%
%MOMM*%
G71*
G01*
G75*
%ADD59C,0.2500*%
%ADD60C,0.1000*%
%ADD61C,0.2540*%
%ADD62C,0.2000*%
G36*
X67208Y123262D02*
X68965D01*
Y122522D01*
X67208D01*
Y120784D01*
X66477D01*
Y122522D01*
X64739D01*
Y123262D01*
X66477D01*
Y125000D01*
X67208D01*
Y123262D01*
D02*
G37*
D59*
X-10000Y132500D02*
X22500D01*
X-10000Y27500D02*
Y132500D01*
Y27500D02*
X22500D01*
X57500D02*
X92500D01*
Y131500D01*
Y132500D01*
X57500D02*
X92500D01*
D60*
X700738Y13160D02*
X710898D01*
X700738Y12906D02*
Y13160D01*
X710898Y-7160D02*
Y13160D01*
X700738Y-7160D02*
X710898D01*
X700738D02*
Y13160D01*
X699920Y152124D02*
X710080D01*
X699920Y151870D02*
Y152124D01*
X710080Y131804D02*
Y152124D01*
X699920Y131804D02*
X710080D01*
X699920D02*
Y152124D01*
D61*
X584466Y236344D02*
Y259344D01*
X583466Y166344D02*
Y191344D01*
Y166344D02*
X595466D01*
X647466D02*
X736466D01*
Y259344D01*
X584466D02*
X736466D01*
X451485Y-101555D02*
Y-49455D01*
X194185Y-101555D02*
X451485D01*
X194185Y-49455D02*
X451485D01*
X-61815D02*
X197485D01*
X-61815Y-101555D02*
X197485D01*
X-61815D02*
Y-49455D01*
X433426Y470541D02*
X423269Y455306D01*
Y470541D02*
X433426Y455306D01*
X408034D02*
X418191D01*
X408034Y465463D01*
Y468002D01*
X410573Y470541D01*
X415652D01*
X418191Y468002D01*
D62*
X255001Y29000D02*
G03*
X176132Y29336I-39001J102000D01*
G01*
X255000Y-44252D02*
Y29000D01*
X176000Y-44252D02*
Y29000D01*
Y-44252D02*
X255000D01*
M02*
