G04 Layer_Color=8388736*
%FSLAX44Y44*%
%MOMM*%
G71*
G01*
G75*
%ADD59C,0.2500*%
%ADD60C,0.1000*%
%ADD61C,0.2540*%
G36*
X724621Y135882D02*
X721468D01*
X721579Y135725D01*
X721635Y135660D01*
X721681Y135595D01*
X721727Y135540D01*
X721764Y135503D01*
X721792Y135475D01*
X721801Y135466D01*
X721848Y135420D01*
X721903Y135373D01*
X722032Y135253D01*
X722180Y135114D01*
X722337Y134976D01*
X722485Y134856D01*
X722550Y134800D01*
X722606Y134745D01*
X722652Y134708D01*
X722689Y134680D01*
X722707Y134662D01*
X722717Y134652D01*
X722865Y134523D01*
X723012Y134403D01*
X723142Y134282D01*
X723262Y134181D01*
X723373Y134079D01*
X723465Y133987D01*
X723558Y133903D01*
X723632Y133829D01*
X723706Y133755D01*
X723761Y133700D01*
X723808Y133654D01*
X723854Y133608D01*
X723900Y133552D01*
X723919Y133533D01*
X724048Y133376D01*
X724159Y133238D01*
X724251Y133099D01*
X724325Y132988D01*
X724381Y132886D01*
X724418Y132812D01*
X724436Y132766D01*
X724445Y132748D01*
X724501Y132609D01*
X724538Y132470D01*
X724575Y132341D01*
X724593Y132230D01*
X724603Y132128D01*
X724612Y132054D01*
Y132008D01*
Y131989D01*
X724603Y131851D01*
X724584Y131721D01*
X724566Y131592D01*
X724529Y131481D01*
X724436Y131259D01*
X724344Y131083D01*
X724288Y131000D01*
X724242Y130935D01*
X724196Y130871D01*
X724150Y130824D01*
X724113Y130787D01*
X724094Y130751D01*
X724076Y130741D01*
X724066Y130732D01*
X723965Y130640D01*
X723854Y130556D01*
X723734Y130492D01*
X723613Y130436D01*
X723373Y130344D01*
X723133Y130279D01*
X723031Y130260D01*
X722929Y130242D01*
X722837Y130233D01*
X722763Y130224D01*
X722698Y130214D01*
X722606D01*
X722439Y130224D01*
X722282Y130233D01*
X722134Y130260D01*
X721995Y130288D01*
X721866Y130325D01*
X721746Y130362D01*
X721635Y130408D01*
X721533Y130455D01*
X721441Y130501D01*
X721367Y130547D01*
X721302Y130584D01*
X721246Y130621D01*
X721200Y130649D01*
X721172Y130677D01*
X721154Y130686D01*
X721145Y130695D01*
X721052Y130787D01*
X720969Y130889D01*
X720886Y131000D01*
X720821Y131111D01*
X720710Y131333D01*
X720636Y131555D01*
X720609Y131657D01*
X720581Y131758D01*
X720562Y131841D01*
X720544Y131916D01*
X720535Y131980D01*
Y132027D01*
X720525Y132054D01*
Y132063D01*
X721330Y132147D01*
X721348Y131934D01*
X721385Y131749D01*
X721441Y131583D01*
X721505Y131453D01*
X721561Y131342D01*
X721616Y131268D01*
X721653Y131222D01*
X721672Y131204D01*
X721811Y131093D01*
X721958Y131009D01*
X722116Y130945D01*
X722254Y130908D01*
X722384Y130880D01*
X722495Y130871D01*
X722532Y130862D01*
X722587D01*
X722781Y130871D01*
X722957Y130908D01*
X723105Y130963D01*
X723234Y131019D01*
X723336Y131083D01*
X723401Y131130D01*
X723447Y131167D01*
X723465Y131185D01*
X723576Y131314D01*
X723660Y131444D01*
X723724Y131573D01*
X723761Y131703D01*
X723789Y131805D01*
X723798Y131897D01*
X723808Y131952D01*
Y131962D01*
Y131971D01*
X723789Y132137D01*
X723752Y132313D01*
X723687Y132470D01*
X723623Y132618D01*
X723549Y132738D01*
X723484Y132840D01*
X723465Y132877D01*
X723447Y132905D01*
X723428Y132914D01*
Y132923D01*
X723354Y133025D01*
X723262Y133127D01*
X723160Y133238D01*
X723049Y133349D01*
X722818Y133570D01*
X722587Y133792D01*
X722467Y133894D01*
X722365Y133987D01*
X722263Y134070D01*
X722180Y134144D01*
X722116Y134199D01*
X722060Y134245D01*
X722023Y134273D01*
X722014Y134282D01*
X721783Y134476D01*
X721570Y134662D01*
X721394Y134828D01*
X721256Y134967D01*
X721135Y135087D01*
X721052Y135170D01*
X721006Y135225D01*
X720988Y135235D01*
Y135244D01*
X720858Y135401D01*
X720757Y135549D01*
X720664Y135697D01*
X720590Y135826D01*
X720535Y135937D01*
X720498Y136021D01*
X720479Y136076D01*
X720470Y136085D01*
Y136095D01*
X720433Y136196D01*
X720414Y136289D01*
X720396Y136381D01*
X720387Y136464D01*
X720377Y136538D01*
Y136594D01*
Y136631D01*
Y136640D01*
X724621D01*
Y135882D01*
D02*
G37*
G36*
X718889Y134902D02*
X718759Y134717D01*
X718639Y134551D01*
X718519Y134412D01*
X718417Y134282D01*
X718325Y134190D01*
X718251Y134116D01*
X718205Y134070D01*
X718186Y134051D01*
X718112Y133996D01*
X718029Y133931D01*
X717863Y133829D01*
X717789Y133792D01*
X717733Y133755D01*
X717696Y133737D01*
X717678Y133728D01*
X717844Y133700D01*
X718001Y133672D01*
X718140Y133626D01*
X718279Y133589D01*
X718399Y133543D01*
X718510Y133487D01*
X718612Y133441D01*
X718704Y133395D01*
X718778Y133339D01*
X718852Y133293D01*
X718907Y133256D01*
X718954Y133219D01*
X718991Y133191D01*
X719018Y133164D01*
X719027Y133154D01*
X719037Y133145D01*
X719111Y133053D01*
X719185Y132960D01*
X719296Y132766D01*
X719370Y132572D01*
X719425Y132387D01*
X719462Y132230D01*
X719471Y132165D01*
Y132100D01*
X719481Y132054D01*
Y132017D01*
Y131999D01*
Y131989D01*
X719471Y131795D01*
X719444Y131620D01*
X719397Y131453D01*
X719351Y131314D01*
X719296Y131194D01*
X719259Y131102D01*
X719222Y131046D01*
X719212Y131037D01*
Y131028D01*
X719101Y130880D01*
X718991Y130751D01*
X718870Y130640D01*
X718759Y130556D01*
X718658Y130492D01*
X718575Y130455D01*
X718519Y130427D01*
X718510Y130418D01*
X718501D01*
X718417Y130390D01*
X718316Y130362D01*
X718112Y130316D01*
X717890Y130288D01*
X717687Y130260D01*
X717493Y130251D01*
X717410D01*
X717336Y130242D01*
X714368D01*
Y136640D01*
X715218D01*
Y133802D01*
X716309D01*
X716411Y133811D01*
X716485D01*
X716550Y133820D01*
X716596Y133829D01*
X716633D01*
X716651Y133839D01*
X716661D01*
X716809Y133885D01*
X716873Y133913D01*
X716929Y133940D01*
X716984Y133968D01*
X717021Y133987D01*
X717040Y133996D01*
X717049Y134005D01*
X717123Y134060D01*
X717197Y134125D01*
X717336Y134264D01*
X717400Y134329D01*
X717447Y134384D01*
X717474Y134421D01*
X717484Y134430D01*
X717576Y134560D01*
X717678Y134698D01*
X717779Y134846D01*
X717881Y134985D01*
X717964Y135114D01*
X718029Y135216D01*
X718057Y135253D01*
X718075Y135281D01*
X718094Y135299D01*
Y135309D01*
X718935Y136640D01*
X719989D01*
X718889Y134902D01*
D02*
G37*
G36*
X714893Y521D02*
X715078Y392D01*
X715245Y271D01*
X715383Y151D01*
X715513Y50D01*
X715605Y-43D01*
X715679Y-117D01*
X715725Y-163D01*
X715744Y-182D01*
X715799Y-256D01*
X715864Y-339D01*
X715966Y-505D01*
X716003Y-579D01*
X716040Y-635D01*
X716058Y-672D01*
X716068Y-690D01*
X716095Y-524D01*
X716123Y-366D01*
X716169Y-228D01*
X716206Y-89D01*
X716253Y31D01*
X716308Y142D01*
X716354Y244D01*
X716400Y336D01*
X716456Y410D01*
X716502Y484D01*
X716539Y540D01*
X716576Y586D01*
X716604Y623D01*
X716632Y650D01*
X716641Y660D01*
X716650Y669D01*
X716742Y743D01*
X716835Y817D01*
X717029Y928D01*
X717223Y1002D01*
X717408Y1057D01*
X717565Y1094D01*
X717630Y1104D01*
X717695D01*
X717741Y1113D01*
X717806D01*
X718000Y1104D01*
X718176Y1076D01*
X718342Y1030D01*
X718481Y983D01*
X718601Y928D01*
X718693Y891D01*
X718749Y854D01*
X718758Y845D01*
X718767D01*
X718915Y734D01*
X719045Y623D01*
X719156Y503D01*
X719239Y392D01*
X719304Y290D01*
X719341Y207D01*
X719368Y151D01*
X719378Y142D01*
Y133D01*
X719405Y50D01*
X719433Y-52D01*
X719479Y-256D01*
X719507Y-477D01*
X719535Y-681D01*
X719544Y-875D01*
Y-958D01*
X719553Y-1032D01*
Y-1088D01*
Y-1134D01*
Y-1162D01*
Y-1171D01*
Y-4000D01*
X713155D01*
Y-3149D01*
X715994D01*
Y-2169D01*
Y-2058D01*
X715984Y-1957D01*
Y-1883D01*
X715975Y-1818D01*
X715966Y-1772D01*
Y-1735D01*
X715957Y-1716D01*
Y-1707D01*
X715910Y-1559D01*
X715883Y-1495D01*
X715855Y-1439D01*
X715827Y-1383D01*
X715809Y-1347D01*
X715799Y-1328D01*
X715790Y-1319D01*
X715735Y-1245D01*
X715670Y-1171D01*
X715531Y-1032D01*
X715467Y-967D01*
X715411Y-921D01*
X715374Y-894D01*
X715365Y-884D01*
X715236Y-792D01*
X715097Y-690D01*
X714949Y-588D01*
X714810Y-487D01*
X714681Y-404D01*
X714579Y-339D01*
X714542Y-311D01*
X714514Y-292D01*
X714496Y-274D01*
X714487D01*
X713155Y567D01*
Y1621D01*
X714893Y521D01*
D02*
G37*
G36*
X158487Y139499D02*
X158357Y139240D01*
X158228Y139018D01*
X158163Y138916D01*
X158098Y138833D01*
X158043Y138750D01*
X157997Y138676D01*
X157950Y138620D01*
X157904Y138574D01*
X157877Y138528D01*
X157849Y138500D01*
X157839Y138491D01*
X157830Y138482D01*
X162000D01*
Y137825D01*
X156647D01*
Y138250D01*
X156795Y138334D01*
X156933Y138435D01*
X157063Y138546D01*
X157192Y138666D01*
X157423Y138925D01*
X157525Y139055D01*
X157618Y139175D01*
X157701Y139304D01*
X157775Y139415D01*
X157839Y139517D01*
X157886Y139609D01*
X157932Y139683D01*
X157960Y139748D01*
X157978Y139785D01*
X157987Y139794D01*
X158616D01*
X158487Y139499D01*
D02*
G37*
G36*
X162000Y143003D02*
X161991Y142753D01*
X161972Y142522D01*
X161945Y142337D01*
X161908Y142170D01*
X161880Y142041D01*
X161852Y141949D01*
X161843Y141921D01*
X161834Y141893D01*
X161824Y141875D01*
X161750Y141727D01*
X161667Y141597D01*
X161575Y141486D01*
X161482Y141403D01*
X161408Y141329D01*
X161344Y141274D01*
X161297Y141246D01*
X161279Y141237D01*
X161131Y141163D01*
X160992Y141107D01*
X160854Y141070D01*
X160724Y141042D01*
X160613Y141024D01*
X160530Y141015D01*
X160456D01*
X160290Y141024D01*
X160142Y141052D01*
X160003Y141098D01*
X159892Y141135D01*
X159790Y141181D01*
X159726Y141227D01*
X159679Y141255D01*
X159661Y141264D01*
X159541Y141366D01*
X159439Y141486D01*
X159356Y141607D01*
X159291Y141736D01*
X159236Y141838D01*
X159199Y141930D01*
X159189Y141967D01*
X159180Y141995D01*
X159171Y142004D01*
Y142013D01*
X159097Y141884D01*
X159014Y141773D01*
X158931Y141671D01*
X158856Y141597D01*
X158783Y141532D01*
X158727Y141496D01*
X158690Y141468D01*
X158681Y141459D01*
X158570Y141394D01*
X158459Y141348D01*
X158348Y141320D01*
X158246Y141292D01*
X158163Y141283D01*
X158089Y141274D01*
X157941D01*
X157849Y141292D01*
X157673Y141338D01*
X157507Y141403D01*
X157368Y141468D01*
X157257Y141542D01*
X157174Y141607D01*
X157118Y141653D01*
X157100Y141662D01*
Y141671D01*
X157026Y141754D01*
X156961Y141847D01*
X156850Y142050D01*
X156776Y142281D01*
X156730Y142503D01*
X156693Y142707D01*
X156684Y142799D01*
Y142882D01*
X156674Y142947D01*
Y142993D01*
Y143030D01*
Y143040D01*
Y145046D01*
X162000D01*
Y143003D01*
D02*
G37*
G36*
X159587Y151000D02*
X159800Y150972D01*
X160003Y150935D01*
X160197Y150889D01*
X160373Y150834D01*
X160530Y150769D01*
X160678Y150704D01*
X160817Y150630D01*
X160937Y150566D01*
X161048Y150501D01*
X161131Y150436D01*
X161205Y150380D01*
X161270Y150325D01*
X161307Y150288D01*
X161334Y150270D01*
X161344Y150260D01*
X161473Y150112D01*
X161584Y149955D01*
X161686Y149798D01*
X161769Y149632D01*
X161843Y149465D01*
X161898Y149299D01*
X161954Y149142D01*
X161991Y148984D01*
X162019Y148846D01*
X162046Y148707D01*
X162065Y148587D01*
X162074Y148485D01*
Y148402D01*
X162083Y148337D01*
Y148291D01*
Y148282D01*
X162074Y148060D01*
X162046Y147838D01*
X162009Y147635D01*
X161954Y147431D01*
X161889Y147237D01*
X161824Y147052D01*
X161750Y146886D01*
X161667Y146728D01*
X161593Y146581D01*
X161519Y146451D01*
X161455Y146340D01*
X161390Y146248D01*
X161334Y146174D01*
X161297Y146118D01*
X161270Y146081D01*
X161260Y146072D01*
X159282D01*
Y148328D01*
X159920D01*
Y146756D01*
X160909D01*
X161001Y146895D01*
X161085Y147034D01*
X161159Y147172D01*
X161223Y147302D01*
X161279Y147440D01*
X161325Y147570D01*
X161390Y147810D01*
X161408Y147912D01*
X161427Y148014D01*
X161436Y148097D01*
X161445Y148180D01*
X161455Y148236D01*
Y148282D01*
Y148309D01*
Y148319D01*
X161445Y148522D01*
X161418Y148707D01*
X161381Y148883D01*
X161334Y149031D01*
X161288Y149160D01*
X161251Y149253D01*
X161233Y149290D01*
X161223Y149317D01*
X161214Y149326D01*
Y149336D01*
X161112Y149502D01*
X161001Y149641D01*
X160881Y149761D01*
X160770Y149863D01*
X160659Y149937D01*
X160576Y149992D01*
X160521Y150029D01*
X160511Y150038D01*
X160502D01*
X160317Y150122D01*
X160114Y150177D01*
X159920Y150223D01*
X159735Y150251D01*
X159568Y150270D01*
X159494D01*
X159439Y150279D01*
X159319D01*
X159143Y150270D01*
X158977Y150260D01*
X158820Y150233D01*
X158672Y150205D01*
X158542Y150168D01*
X158413Y150122D01*
X158293Y150075D01*
X158191Y150029D01*
X158098Y149992D01*
X158015Y149946D01*
X157941Y149900D01*
X157886Y149863D01*
X157839Y149835D01*
X157802Y149807D01*
X157784Y149798D01*
X157775Y149789D01*
X157673Y149687D01*
X157581Y149585D01*
X157497Y149465D01*
X157433Y149345D01*
X157377Y149225D01*
X157331Y149105D01*
X157257Y148874D01*
X157229Y148763D01*
X157211Y148661D01*
X157201Y148568D01*
X157192Y148485D01*
X157183Y148420D01*
Y148374D01*
Y148337D01*
Y148328D01*
X157192Y148106D01*
X157229Y147912D01*
X157275Y147736D01*
X157331Y147588D01*
X157387Y147477D01*
X157433Y147394D01*
X157470Y147339D01*
X157479Y147320D01*
X157599Y147182D01*
X157738Y147071D01*
X157877Y146978D01*
X158015Y146904D01*
X158145Y146849D01*
X158246Y146812D01*
X158283Y146803D01*
X158311Y146793D01*
X158329Y146784D01*
X158339D01*
X158163Y146155D01*
X158015Y146192D01*
X157886Y146238D01*
X157756Y146294D01*
X157645Y146349D01*
X157534Y146405D01*
X157442Y146470D01*
X157350Y146525D01*
X157275Y146590D01*
X157201Y146645D01*
X157146Y146701D01*
X157091Y146756D01*
X157054Y146793D01*
X157017Y146830D01*
X156998Y146858D01*
X156980Y146876D01*
Y146886D01*
X156906Y146987D01*
X156850Y147108D01*
X156749Y147339D01*
X156674Y147579D01*
X156628Y147810D01*
X156619Y147921D01*
X156601Y148014D01*
X156591Y148106D01*
Y148180D01*
X156582Y148245D01*
Y148291D01*
Y148319D01*
Y148328D01*
X156601Y148642D01*
X156638Y148920D01*
X156693Y149179D01*
X156730Y149290D01*
X156758Y149391D01*
X156795Y149484D01*
X156832Y149558D01*
X156860Y149632D01*
X156887Y149687D01*
X156906Y149733D01*
X156924Y149770D01*
X156943Y149789D01*
Y149798D01*
X157091Y150011D01*
X157248Y150186D01*
X157414Y150344D01*
X157581Y150473D01*
X157719Y150575D01*
X157784Y150612D01*
X157839Y150649D01*
X157886Y150667D01*
X157923Y150686D01*
X157941Y150704D01*
X157950D01*
X158200Y150806D01*
X158450Y150880D01*
X158681Y150935D01*
X158903Y150972D01*
X158995Y150982D01*
X159088Y150991D01*
X159162Y151000D01*
X159226D01*
X159282Y151009D01*
X159356D01*
X159587Y151000D01*
D02*
G37*
G36*
X719581Y4571D02*
X719424Y4478D01*
X719276Y4376D01*
X719128Y4256D01*
X718998Y4145D01*
X718887Y4034D01*
X718795Y3951D01*
X718767Y3914D01*
X718740Y3887D01*
X718730Y3877D01*
X718721Y3868D01*
X718564Y3674D01*
X718416Y3480D01*
X718287Y3295D01*
X718185Y3110D01*
X718092Y2953D01*
X718055Y2888D01*
X718028Y2833D01*
X718000Y2786D01*
X717991Y2749D01*
X717972Y2731D01*
Y2722D01*
X717214D01*
X717270Y2860D01*
X717334Y2999D01*
X717399Y3138D01*
X717464Y3267D01*
X717519Y3378D01*
X717565Y3470D01*
X717602Y3526D01*
X717612Y3535D01*
Y3544D01*
X717713Y3711D01*
X717815Y3859D01*
X717907Y3988D01*
X717991Y4090D01*
X718055Y4182D01*
X718111Y4238D01*
X718148Y4284D01*
X718157Y4293D01*
X713155D01*
Y5079D01*
X719581D01*
Y4571D01*
D02*
G37*
G36*
X40454Y82581D02*
X40389Y82442D01*
X40325Y82303D01*
X40260Y82174D01*
X40205Y82063D01*
X40158Y81971D01*
X40121Y81915D01*
X40112Y81906D01*
Y81897D01*
X40010Y81730D01*
X39909Y81582D01*
X39816Y81453D01*
X39733Y81351D01*
X39668Y81259D01*
X39613Y81203D01*
X39576Y81157D01*
X39567Y81148D01*
X44569D01*
Y80362D01*
X38143D01*
Y80871D01*
X38300Y80963D01*
X38448Y81065D01*
X38596Y81185D01*
X38725Y81296D01*
X38836Y81407D01*
X38929Y81490D01*
X38956Y81527D01*
X38984Y81555D01*
X38993Y81564D01*
X39003Y81573D01*
X39160Y81767D01*
X39308Y81961D01*
X39437Y82146D01*
X39539Y82331D01*
X39631Y82488D01*
X39668Y82553D01*
X39696Y82609D01*
X39724Y82655D01*
X39733Y82692D01*
X39752Y82710D01*
Y82720D01*
X40510D01*
X40454Y82581D01*
D02*
G37*
G36*
X398838Y-83277D02*
X398690Y-83361D01*
X398551Y-83462D01*
X398422Y-83573D01*
X398292Y-83693D01*
X398061Y-83952D01*
X397960Y-84082D01*
X397867Y-84202D01*
X397784Y-84331D01*
X397710Y-84442D01*
X397645Y-84544D01*
X397599Y-84636D01*
X397553Y-84710D01*
X397525Y-84775D01*
X397506Y-84812D01*
X397497Y-84821D01*
X396869D01*
X396998Y-84525D01*
X397127Y-84267D01*
X397257Y-84045D01*
X397322Y-83943D01*
X397386Y-83860D01*
X397442Y-83777D01*
X397488Y-83703D01*
X397534Y-83647D01*
X397580Y-83601D01*
X397608Y-83555D01*
X397636Y-83527D01*
X397645Y-83518D01*
X397654Y-83508D01*
X393485D01*
Y-82852D01*
X398838D01*
Y-83277D01*
D02*
G37*
G36*
X397414Y-85986D02*
X397543Y-86005D01*
X397664Y-86023D01*
X397765Y-86051D01*
X397858Y-86088D01*
X397923Y-86107D01*
X397960Y-86125D01*
X397978Y-86134D01*
X398098Y-86199D01*
X398209Y-86264D01*
X398302Y-86338D01*
X398376Y-86412D01*
X398431Y-86476D01*
X398477Y-86532D01*
X398505Y-86569D01*
X398514Y-86578D01*
X398588Y-86689D01*
X398644Y-86800D01*
X398681Y-86911D01*
X398718Y-87003D01*
X398736Y-87096D01*
X398755Y-87161D01*
X398764Y-87197D01*
Y-87216D01*
X398782Y-87345D01*
X398792Y-87484D01*
X398801Y-87623D01*
Y-87752D01*
X398810Y-87872D01*
Y-87956D01*
Y-87993D01*
Y-88020D01*
Y-88029D01*
Y-88039D01*
Y-90045D01*
X393485D01*
Y-89342D01*
X395639D01*
Y-87974D01*
X395648Y-87789D01*
X395657Y-87604D01*
X395676Y-87447D01*
X395713Y-87299D01*
X395741Y-87161D01*
X395778Y-87031D01*
X395824Y-86920D01*
X395861Y-86828D01*
X395907Y-86735D01*
X395944Y-86661D01*
X395981Y-86596D01*
X396018Y-86550D01*
X396046Y-86504D01*
X396064Y-86476D01*
X396073Y-86467D01*
X396083Y-86458D01*
X396175Y-86375D01*
X396268Y-86301D01*
X396360Y-86236D01*
X396462Y-86180D01*
X396656Y-86097D01*
X396850Y-86032D01*
X397016Y-86005D01*
X397090Y-85996D01*
X397155Y-85986D01*
X397201Y-85977D01*
X397275D01*
X397414Y-85986D01*
D02*
G37*
G36*
X41656Y89682D02*
X41980Y89644D01*
X42266Y89598D01*
X42405Y89561D01*
X42525Y89534D01*
X42636Y89506D01*
X42738Y89469D01*
X42830Y89441D01*
X42904Y89423D01*
X42960Y89395D01*
X43006Y89386D01*
X43034Y89367D01*
X43043D01*
X43320Y89228D01*
X43570Y89071D01*
X43783Y88905D01*
X43866Y88822D01*
X43949Y88748D01*
X44023Y88674D01*
X44088Y88600D01*
X44143Y88535D01*
X44180Y88480D01*
X44217Y88443D01*
X44245Y88406D01*
X44254Y88387D01*
X44263Y88378D01*
X44337Y88248D01*
X44402Y88119D01*
X44504Y87842D01*
X44578Y87564D01*
X44624Y87296D01*
X44643Y87167D01*
X44661Y87056D01*
X44670Y86954D01*
Y86871D01*
X44679Y86797D01*
Y86741D01*
Y86704D01*
Y86695D01*
X44670Y86510D01*
X44652Y86335D01*
X44633Y86168D01*
X44596Y86011D01*
X44550Y85863D01*
X44504Y85724D01*
X44458Y85595D01*
X44402Y85475D01*
X44356Y85373D01*
X44310Y85271D01*
X44263Y85197D01*
X44217Y85123D01*
X44180Y85077D01*
X44162Y85031D01*
X44143Y85013D01*
X44134Y85003D01*
X44023Y84874D01*
X43912Y84763D01*
X43783Y84661D01*
X43653Y84559D01*
X43394Y84393D01*
X43135Y84264D01*
X43015Y84208D01*
X42904Y84162D01*
X42803Y84125D01*
X42719Y84097D01*
X42645Y84069D01*
X42590Y84051D01*
X42553Y84042D01*
X42544D01*
X42331Y84892D01*
X42479Y84929D01*
X42618Y84976D01*
X42747Y85022D01*
X42867Y85068D01*
X42978Y85123D01*
X43071Y85179D01*
X43163Y85244D01*
X43246Y85299D01*
X43320Y85345D01*
X43376Y85401D01*
X43431Y85447D01*
X43478Y85484D01*
X43505Y85521D01*
X43533Y85549D01*
X43542Y85558D01*
X43552Y85567D01*
X43625Y85660D01*
X43681Y85761D01*
X43783Y85965D01*
X43857Y86159D01*
X43903Y86353D01*
X43940Y86519D01*
X43949Y86584D01*
Y86649D01*
X43958Y86704D01*
Y86741D01*
Y86760D01*
Y86769D01*
X43949Y86982D01*
X43912Y87185D01*
X43866Y87370D01*
X43810Y87536D01*
X43755Y87666D01*
X43727Y87721D01*
X43709Y87768D01*
X43690Y87805D01*
X43672Y87832D01*
X43662Y87851D01*
Y87860D01*
X43533Y88036D01*
X43394Y88184D01*
X43237Y88313D01*
X43089Y88415D01*
X42960Y88498D01*
X42849Y88553D01*
X42803Y88572D01*
X42775Y88590D01*
X42756Y88600D01*
X42747D01*
X42507Y88674D01*
X42266Y88729D01*
X42026Y88775D01*
X41804Y88803D01*
X41702Y88812D01*
X41610Y88822D01*
X41527D01*
X41462Y88831D01*
X41323D01*
X41083Y88822D01*
X40861Y88803D01*
X40658Y88766D01*
X40473Y88729D01*
X40315Y88701D01*
X40251Y88683D01*
X40195Y88665D01*
X40149Y88655D01*
X40121Y88646D01*
X40103Y88637D01*
X40094D01*
X39881Y88544D01*
X39687Y88443D01*
X39530Y88332D01*
X39391Y88211D01*
X39280Y88110D01*
X39206Y88027D01*
X39160Y87962D01*
X39141Y87953D01*
Y87943D01*
X39021Y87749D01*
X38929Y87536D01*
X38864Y87333D01*
X38827Y87139D01*
X38799Y86963D01*
X38790Y86889D01*
Y86825D01*
X38781Y86778D01*
Y86741D01*
Y86714D01*
Y86704D01*
X38790Y86473D01*
X38827Y86261D01*
X38882Y86085D01*
X38938Y85928D01*
X39003Y85808D01*
X39049Y85715D01*
X39086Y85660D01*
X39104Y85641D01*
X39243Y85493D01*
X39400Y85355D01*
X39567Y85244D01*
X39733Y85151D01*
X39881Y85077D01*
X39955Y85049D01*
X40010Y85031D01*
X40057Y85013D01*
X40094Y84994D01*
X40112Y84985D01*
X40121D01*
X39927Y84153D01*
X39761Y84208D01*
X39613Y84264D01*
X39474Y84338D01*
X39335Y84402D01*
X39215Y84476D01*
X39104Y84559D01*
X38993Y84633D01*
X38901Y84707D01*
X38827Y84781D01*
X38753Y84846D01*
X38688Y84911D01*
X38642Y84957D01*
X38596Y85003D01*
X38568Y85040D01*
X38559Y85059D01*
X38550Y85068D01*
X38466Y85197D01*
X38383Y85327D01*
X38319Y85456D01*
X38263Y85595D01*
X38180Y85872D01*
X38124Y86122D01*
X38097Y86242D01*
X38087Y86344D01*
X38078Y86446D01*
X38069Y86529D01*
X38060Y86594D01*
Y86640D01*
Y86677D01*
Y86686D01*
X38078Y86991D01*
X38124Y87287D01*
X38180Y87546D01*
X38217Y87666D01*
X38254Y87777D01*
X38291Y87879D01*
X38328Y87971D01*
X38355Y88045D01*
X38383Y88119D01*
X38411Y88165D01*
X38429Y88202D01*
X38439Y88230D01*
X38448Y88239D01*
X38605Y88489D01*
X38790Y88701D01*
X38975Y88886D01*
X39160Y89044D01*
X39326Y89164D01*
X39400Y89210D01*
X39465Y89247D01*
X39511Y89284D01*
X39548Y89302D01*
X39576Y89312D01*
X39585Y89321D01*
X39872Y89450D01*
X40168Y89543D01*
X40463Y89607D01*
X40732Y89654D01*
X40852Y89672D01*
X40972Y89682D01*
X41064Y89691D01*
X41157D01*
X41222Y89700D01*
X41323D01*
X41656Y89682D01*
D02*
G37*
G36*
X396305Y-92689D02*
X398810Y-90822D01*
Y-91589D01*
X398496Y-91830D01*
X398209Y-92042D01*
X397969Y-92236D01*
X397747Y-92394D01*
X397553Y-92541D01*
X397386Y-92662D01*
X397248Y-92763D01*
X397137Y-92846D01*
X397035Y-92921D01*
X396961Y-92967D01*
X396896Y-93013D01*
X396850Y-93041D01*
X396822Y-93068D01*
X396804Y-93078D01*
X396785Y-93087D01*
X396859Y-93124D01*
X396924Y-93161D01*
X397072Y-93253D01*
X397127Y-93290D01*
X397174Y-93327D01*
X397211Y-93346D01*
X397220Y-93355D01*
X398810Y-94483D01*
Y-95324D01*
X396258Y-93494D01*
X393485Y-95565D01*
Y-94705D01*
X393688Y-94557D01*
X393873Y-94427D01*
X394049Y-94298D01*
X394215Y-94187D01*
X394363Y-94076D01*
X394511Y-93975D01*
X394640Y-93882D01*
X394761Y-93790D01*
X394871Y-93706D01*
X394982Y-93642D01*
X395158Y-93512D01*
X395315Y-93401D01*
X395435Y-93318D01*
X395528Y-93253D01*
X395602Y-93207D01*
X395657Y-93170D01*
X395694Y-93152D01*
X395722Y-93133D01*
X395731Y-93124D01*
X395741D01*
Y-93105D01*
X395657Y-93059D01*
X395546Y-92985D01*
X395417Y-92902D01*
X395297Y-92819D01*
X395177Y-92745D01*
X395084Y-92680D01*
X395047Y-92652D01*
X395019Y-92634D01*
X395001Y-92615D01*
X394992D01*
X393485Y-91543D01*
Y-90674D01*
X396305Y-92689D01*
D02*
G37*
%LPC*%
G36*
X717123Y133071D02*
X715218D01*
Y130954D01*
X717234D01*
X717484Y130963D01*
X717696Y131000D01*
X717881Y131046D01*
X718020Y131102D01*
X718140Y131157D01*
X718214Y131204D01*
X718260Y131241D01*
X718279Y131250D01*
X718390Y131370D01*
X718473Y131490D01*
X718528Y131620D01*
X718575Y131731D01*
X718593Y131841D01*
X718602Y131925D01*
X718612Y131980D01*
Y131989D01*
Y131999D01*
X718602Y132110D01*
X718584Y132221D01*
X718556Y132313D01*
X718528Y132396D01*
X718491Y132470D01*
X718464Y132526D01*
X718445Y132563D01*
X718436Y132572D01*
X718371Y132664D01*
X718288Y132748D01*
X718205Y132812D01*
X718121Y132868D01*
X718047Y132905D01*
X717992Y132933D01*
X717955Y132951D01*
X717937Y132960D01*
X717807Y132997D01*
X717659Y133025D01*
X717511Y133043D01*
X717363Y133053D01*
X717234Y133062D01*
X717123Y133071D01*
D02*
G37*
G36*
X717815Y244D02*
X717796D01*
X717686Y235D01*
X717575Y216D01*
X717482Y188D01*
X717399Y160D01*
X717325Y124D01*
X717270Y96D01*
X717233Y77D01*
X717223Y68D01*
X717131Y3D01*
X717048Y-80D01*
X716983Y-163D01*
X716927Y-246D01*
X716890Y-320D01*
X716863Y-376D01*
X716844Y-413D01*
X716835Y-431D01*
X716798Y-561D01*
X716770Y-709D01*
X716752Y-856D01*
X716742Y-1004D01*
X716733Y-1134D01*
X716724Y-1245D01*
Y-1282D01*
Y-1310D01*
Y-1328D01*
Y-1337D01*
Y-3149D01*
X718841D01*
Y-1134D01*
X718832Y-884D01*
X718795Y-672D01*
X718749Y-487D01*
X718693Y-348D01*
X718638Y-228D01*
X718592Y-154D01*
X718555Y-108D01*
X718545Y-89D01*
X718425Y22D01*
X718305Y105D01*
X718176Y160D01*
X718065Y207D01*
X717954Y225D01*
X717870Y235D01*
X717815Y244D01*
D02*
G37*
G36*
X161371Y144334D02*
X159541D01*
Y143104D01*
Y142966D01*
X159550Y142836D01*
X159559Y142716D01*
X159578Y142614D01*
X159596Y142513D01*
X159615Y142429D01*
X159642Y142346D01*
X159661Y142281D01*
X159707Y142170D01*
X159744Y142097D01*
X159772Y142050D01*
X159781Y142041D01*
X159883Y141939D01*
X159985Y141865D01*
X160095Y141819D01*
X160206Y141782D01*
X160308Y141764D01*
X160382Y141745D01*
X160456D01*
X160604Y141754D01*
X160743Y141791D01*
X160854Y141828D01*
X160955Y141884D01*
X161029Y141930D01*
X161085Y141976D01*
X161122Y142013D01*
X161131Y142022D01*
X161177Y142078D01*
X161214Y142143D01*
X161270Y142291D01*
X161316Y142457D01*
X161344Y142624D01*
X161362Y142771D01*
Y142836D01*
X161371Y142892D01*
Y142947D01*
Y142984D01*
Y143003D01*
Y143012D01*
Y144334D01*
D02*
G37*
G36*
X158903D02*
X157303D01*
Y143271D01*
Y143123D01*
X157312Y142993D01*
X157322Y142882D01*
Y142781D01*
X157331Y142707D01*
X157340Y142651D01*
X157350Y142614D01*
Y142605D01*
X157368Y142513D01*
X157396Y142429D01*
X157433Y142346D01*
X157470Y142281D01*
X157507Y142235D01*
X157544Y142198D01*
X157562Y142170D01*
X157571Y142161D01*
X157645Y142097D01*
X157729Y142050D01*
X157821Y142013D01*
X157914Y141995D01*
X157997Y141976D01*
X158061Y141967D01*
X158126D01*
X158256Y141976D01*
X158357Y141995D01*
X158450Y142022D01*
X158533Y142059D01*
X158588Y142097D01*
X158625Y142124D01*
X158653Y142143D01*
X158662Y142152D01*
X158718Y142226D01*
X158764Y142300D01*
X158801Y142374D01*
X158829Y142439D01*
X158847Y142494D01*
X158856Y142540D01*
X158866Y142577D01*
Y142586D01*
X158875Y142679D01*
X158884Y142781D01*
X158893Y142882D01*
Y142975D01*
X158903Y143058D01*
Y143123D01*
Y143160D01*
Y143178D01*
Y144334D01*
D02*
G37*
G36*
X397303Y-86707D02*
X397248D01*
X397081Y-86726D01*
X396924Y-86763D01*
X396795Y-86828D01*
X396684Y-86902D01*
X396591Y-87003D01*
X396517Y-87105D01*
X396452Y-87225D01*
X396397Y-87336D01*
X396360Y-87456D01*
X396332Y-87577D01*
X396305Y-87678D01*
X396295Y-87780D01*
X396286Y-87854D01*
X396277Y-87919D01*
Y-87956D01*
Y-87974D01*
Y-89342D01*
X398181D01*
Y-87983D01*
Y-87817D01*
X398172Y-87678D01*
X398163Y-87558D01*
X398154Y-87456D01*
X398135Y-87382D01*
X398126Y-87327D01*
X398117Y-87290D01*
Y-87281D01*
X398089Y-87197D01*
X398043Y-87114D01*
X397997Y-87050D01*
X397941Y-86985D01*
X397895Y-86939D01*
X397849Y-86902D01*
X397821Y-86883D01*
X397812Y-86874D01*
X397719Y-86818D01*
X397627Y-86781D01*
X397525Y-86744D01*
X397442Y-86726D01*
X397359Y-86717D01*
X397303Y-86707D01*
D02*
G37*
%LPD*%
D59*
X584466Y259344D02*
X736466D01*
D60*
X700818Y-7000D02*
Y13000D01*
Y-7000D02*
X710818D01*
Y13000D01*
X700818D02*
X710818D01*
X700000Y131964D02*
Y151964D01*
Y131964D02*
X710000D01*
Y151964D01*
X700000D02*
X710000D01*
X102249Y242748D02*
X329748D01*
Y-44252D02*
Y242748D01*
X102249Y-44252D02*
X329748D01*
X102249D02*
Y242748D01*
X435560Y306301D02*
Y447257D01*
X154060Y306301D02*
X435560D01*
X154060D02*
Y447257D01*
X435560D01*
Y376151D02*
Y380723D01*
X154060D02*
Y386057D01*
Y380723D02*
X435560D01*
D61*
X-61815Y-101555D02*
X451485D01*
X-61815D02*
Y-49455D01*
X451485D01*
Y-101555D02*
Y-49455D01*
X413725Y424919D02*
X398730Y434915D01*
X413725D02*
X398730Y424919D01*
Y449911D02*
Y439914D01*
X408727Y449911D01*
X411226D01*
X413725Y447411D01*
Y442413D01*
X411226Y439914D01*
M02*
