M48
;Layer_Color=9474304
;FILE_FORMAT=4:4
METRIC,LZ
;TYPE=PLATED
T1F00S00C0.3000
T2F00S00C0.5000
T3F00S00C0.6000
T4F00S00C0.8000
T5F00S00C1.0000
T6F00S00C2.0000
T7F00S00C2.6500
;TYPE=NON_PLATED
T8F00S00C2.7500
T9F00S00C3.0000
%
T01
X00411303Y00097
X00425Y00208813
X00666Y00027348
X00700738Y00035
X00402Y00028165
X00390945Y-00009
X0034245Y-0001416
X0031705Y-000155
X00323Y00115
X0034245Y0010375
X0031Y00137297
X00294Y00137297
X00279
X00259Y00134
X00221Y00132
X00203Y00134
X00185543Y00141
X00161665Y00142
X00161Y00188347
X00166Y00085
X00131319
X00117Y00095395
X00087Y00087048
X00077Y00099
X00066648Y00102
X0003495Y00158347
X00033Y-00007
X00115Y00010509
X00166Y-00015
X00286Y00091
X0001152Y00222931
X00049257Y00236
X00078Y00238
X00074507Y0022984
X00089507
X00013786Y00278161
X00561Y00289496
X00619876Y00289876
X00556Y00352
T02
X000644Y00036
X000774
T03
X00047Y00363
X000724
Y003884
X00047
X000978
Y00363
X001232
Y003884
T04
X00687324Y-00008128
Y00017272
X00686562Y00131064
Y00156464
T05
X00410085Y-00087556
Y-00062155
X00435485
Y-00087556
X00384685
Y-00062155
X00359285
Y-00087556
X00333885
X00308485
Y-00062155
X00333885
X00283085
Y-00087556
X00257685
Y-00062155
X00232285
Y-00087556
X00206885
Y-00062155
X00181485
Y-00087556
X00156085
Y-00062155
X00130685
X00105285
X00079885
X00054485
X00029085
Y-00087556
X00054485
X00079885
X00105285
X00130685
X00003685
X-00021715
X-00047115
Y-00062155
X-00021715
X00003685
X0019Y00327891
Y00357891
X0022
Y00327891
X0025
Y00357891
X0028
Y00327891
X0031
Y00357891
X0034
Y00327891
X0037
Y00357891
X004
Y00327891
T06
X00216Y-00006
Y00194
T07
X00622466Y00166344
X00592466Y00214344
X00652466Y00214598
T08
X0048Y00000082
X0
Y0033
X0048Y0033008
T09
X00200102Y00400789
X0038984
M30
